# xmcd
#
# Track frame offsets:
#	300
#	16026
#	29078
#	42770
#	53241
#	69330
#	86965
#	102691
#	116982
#	131009
#	142709
#	163855
#	180571
#	194653
#	209711
#
# Disc length: 3041 seconds
#
# Revision: 1
# Processed by: cddbd v1.5.2PL0 Copyright (c) Steve Scherf et al.
# Submitted via: audiograbber 1.83.01
#
DISCID=e50bdd0f
DTITLE=Various Artist - C2C-003
DYEAR=1900
DGENRE=Karaoke
TTITLE0=Lynyrd Skynyrd - Don't ask me no questions
TTITLE1=Shania Twain - What made you say that
TTITLE2=Prefect Stranger - Ridin' the rodeo
TTITLE3=Rick Trevino  - Poor broke mixed up messs of a heart
TTITLE4=Trisha Yearwood - Restless kind, The
TTITLE5=Alison Kraus - Broadway
TTITLE6=Kim Richey - Good
TTITLE7=John Michael Montogomery - Dream on texas ladies
TTITLE8=Kenny Chesney - All I need to know
TTITLE9=Garth Brooks - Old man's back in town, The
TTITLE10=Vince Gill and Jenny Gill - Let there be peace on earth
TTITLE11=Colin Raye - I think About you
TTITLE12=Bryan White - Look at me now
TTITLE13=Ty Herndon - I want my goodbye back
TTITLE14=Rhett Akins - That ain't My Track
EXTD=
EXTT0=
EXTT1=
EXTT2=
EXTT3=
EXTT4=
EXTT5=
EXTT6=
EXTT7=
EXTT8=
EXTT9=
EXTT10=
EXTT11=
EXTT12=
EXTT13=
EXTT14=
PLAYORDER=
